<svg viewBox="-16 -32 880 192" width="880" height="192" xmlns="http://www.w3.org/2000/svg"><desc>Generated with https://github.com/Platane/snk</desc><style>:root{--cb:#1b1f230a;--cs:purple;--ce:#161b22;--c0:#161b22;--c1:#01311f;--c2:#034525;--c3:#0f6d31;--c4:#00c647}.c{shape-rendering:geometricPrecision;fill:var(--ce);stroke-width:1px;stroke:var(--cb);animation:none 33900ms linear infinite;width:12px;height:12px}@keyframes c0{0.28%{fill:var(--c1)}0.3%,100%{fill:var(--ce)}}.c.c0{fill:var(--c1);animation-name:c0}@keyframes c1{1.17%{fill:var(--c1)}1.19%,100%{fill:var(--ce)}}.c.c1{fill:var(--c1);animation-name:c1}@keyframes c2{1.46%{fill:var(--c1)}1.48%,100%{fill:var(--ce)}}.c.c2{fill:var(--c1);animation-name:c2}@keyframes c3{67.84%{fill:var(--c2)}67.86%,100%{fill:var(--ce)}}.c.c3{fill:var(--c2);animation-name:c3}@keyframes c4{1.76%{fill:var(--c1)}1.78%,100%{fill:var(--ce)}}.c.c4{fill:var(--c1);animation-name:c4}@keyframes c5{2.35%{fill:var(--c1)}2.37%,100%{fill:var(--ce)}}.c.c5{fill:var(--c1);animation-name:c5}@keyframes c6{47.19%{fill:var(--c1)}47.21%,100%{fill:var(--ce)}}.c.c6{fill:var(--c1);animation-name:c6}@keyframes c7{66.36%{fill:var(--c2)}66.38%,100%{fill:var(--ce)}}.c.c7{fill:var(--c2);animation-name:c7}@keyframes c8{66.66%{fill:var(--c2)}66.68%,100%{fill:var(--ce)}}.c.c8{fill:var(--c2);animation-name:c8}@keyframes c9{3.53%{fill:var(--c1)}3.55%,100%{fill:var(--ce)}}.c.c9{fill:var(--c1);animation-name:c9}@keyframes ca{4.41%{fill:var(--c1)}4.43%,100%{fill:var(--ce)}}.c.ca{fill:var(--c1);animation-name:ca}@keyframes cb{44.24%{fill:var(--c1)}44.26%,100%{fill:var(--ce)}}.c.cb{fill:var(--c1);animation-name:cb}@keyframes cc{63.41%{fill:var(--c2)}63.43%,100%{fill:var(--ce)}}.c.cc{fill:var(--c2);animation-name:cc}@keyframes cd{62.82%{fill:var(--c2)}62.84%,100%{fill:var(--ce)}}.c.cd{fill:var(--c2);animation-name:cd}@keyframes ce{6.48%{fill:var(--c1)}6.5%,100%{fill:var(--ce)}}.c.ce{fill:var(--c1);animation-name:ce}@keyframes cf{7.95%{fill:var(--c1)}7.97%,100%{fill:var(--ce)}}.c.cf{fill:var(--c1);animation-name:cf}@keyframes cg{86.72%{fill:var(--c3)}86.74%,100%{fill:var(--ce)}}.c.cg{fill:var(--c3);animation-name:cg}@keyframes ch{52.2%{fill:var(--c1)}52.22%,100%{fill:var(--ce)}}.c.ch{fill:var(--c1);animation-name:ch}@keyframes ci{53.09%{fill:var(--c2)}53.11%,100%{fill:var(--ce)}}.c.ci{fill:var(--c2);animation-name:ci}@keyframes cj{53.38%{fill:var(--c2)}53.4%,100%{fill:var(--ce)}}.c.cj{fill:var(--c2);animation-name:cj}@keyframes ck{52.5%{fill:var(--c2)}52.52%,100%{fill:var(--ce)}}.c.ck{fill:var(--c2);animation-name:ck}@keyframes cl{52.79%{fill:var(--c2)}52.81%,100%{fill:var(--ce)}}.c.cl{fill:var(--c2);animation-name:cl}@keyframes cm{85.54%{fill:var(--c3)}85.56%,100%{fill:var(--ce)}}.c.cm{fill:var(--c3);animation-name:cm}@keyframes cn{8.54%{fill:var(--c1)}8.56%,100%{fill:var(--ce)}}.c.cn{fill:var(--c1);animation-name:cn}@keyframes co{8.84%{fill:var(--c1)}8.86%,100%{fill:var(--ce)}}.c.co{fill:var(--c1);animation-name:co}@keyframes cp{9.13%{fill:var(--c1)}9.15%,100%{fill:var(--ce)}}.c.cp{fill:var(--c1);animation-name:cp}@keyframes cq{40.99%{fill:var(--c1)}41.01%,100%{fill:var(--ce)}}.c.cq{fill:var(--c1);animation-name:cq}@keyframes cr{87.9%{fill:var(--c3)}87.92%,100%{fill:var(--ce)}}.c.cr{fill:var(--c3);animation-name:cr}@keyframes cs{9.43%{fill:var(--c1)}9.45%,100%{fill:var(--ce)}}.c.cs{fill:var(--c1);animation-name:cs}@keyframes ct{55.15%{fill:var(--c2)}55.17%,100%{fill:var(--ce)}}.c.ct{fill:var(--c2);animation-name:ct}@keyframes cu{55.74%{fill:var(--c2)}55.76%,100%{fill:var(--ce)}}.c.cu{fill:var(--c2);animation-name:cu}@keyframes cv{91.73%{fill:var(--c4)}91.75%,100%{fill:var(--ce)}}.c.cv{fill:var(--c4);animation-name:cv}@keyframes cw{11.2%{fill:var(--c1)}11.22%,100%{fill:var(--ce)}}.c.cw{fill:var(--c1);animation-name:cw}@keyframes cx{84.36%{fill:var(--c3)}84.38%,100%{fill:var(--ce)}}.c.cx{fill:var(--c3);animation-name:cx}@keyframes cy{59.87%{fill:var(--c2)}59.89%,100%{fill:var(--ce)}}.c.cy{fill:var(--c2);animation-name:cy}@keyframes cz{10.61%{fill:var(--c1)}10.63%,100%{fill:var(--ce)}}.c.cz{fill:var(--c1);animation-name:cz}@keyframes c10{10.31%{fill:var(--c1)}10.33%,100%{fill:var(--ce)}}.c.c10{fill:var(--c1);animation-name:c10}@keyframes c11{38.34%{fill:var(--c1)}38.36%,100%{fill:var(--ce)}}.c.c11{fill:var(--c1);animation-name:c11}@keyframes c12{38.63%{fill:var(--c1)}38.65%,100%{fill:var(--ce)}}.c.c12{fill:var(--c1);animation-name:c12}@keyframes c13{89.96%{fill:var(--c4)}89.98%,100%{fill:var(--ce)}}.c.c13{fill:var(--c4);animation-name:c13}@keyframes c14{38.93%{fill:var(--c1)}38.95%,100%{fill:var(--ce)}}.c.c14{fill:var(--c1);animation-name:c14}@keyframes c15{57.22%{fill:var(--c2)}57.24%,100%{fill:var(--ce)}}.c.c15{fill:var(--c2);animation-name:c15}@keyframes c16{58.4%{fill:var(--c2)}58.42%,100%{fill:var(--ce)}}.c.c16{fill:var(--c2);animation-name:c16}@keyframes c17{12.97%{fill:var(--c1)}12.99%,100%{fill:var(--ce)}}.c.c17{fill:var(--c1);animation-name:c17}@keyframes c18{14.15%{fill:var(--c1)}14.17%,100%{fill:var(--ce)}}.c.c18{fill:var(--c1);animation-name:c18}@keyframes c19{14.44%{fill:var(--c1)}14.46%,100%{fill:var(--ce)}}.c.c19{fill:var(--c1);animation-name:c19}@keyframes c1a{14.74%{fill:var(--c1)}14.76%,100%{fill:var(--ce)}}.c.c1a{fill:var(--c1);animation-name:c1a}@keyframes c1b{15.62%{fill:var(--c1)}15.64%,100%{fill:var(--ce)}}.c.c1b{fill:var(--c1);animation-name:c1b}@keyframes c1c{15.33%{fill:var(--c1)}15.35%,100%{fill:var(--ce)}}.c.c1c{fill:var(--c1);animation-name:c1c}@keyframes c1d{35.09%{fill:var(--c1)}35.11%,100%{fill:var(--ce)}}.c.c1d{fill:var(--c1);animation-name:c1d}@keyframes c1e{16.21%{fill:var(--c1)}16.23%,100%{fill:var(--ce)}}.c.c1e{fill:var(--c1);animation-name:c1e}@keyframes c1f{16.51%{fill:var(--c1)}16.53%,100%{fill:var(--ce)}}.c.c1f{fill:var(--c1);animation-name:c1f}@keyframes c1g{77.28%{fill:var(--c2)}77.3%,100%{fill:var(--ce)}}.c.c1g{fill:var(--c2);animation-name:c1g}@keyframes c1h{20.64%{fill:var(--c1)}20.66%,100%{fill:var(--ce)}}.c.c1h{fill:var(--c1);animation-name:c1h}@keyframes c1i{17.98%{fill:var(--c1)}18%,100%{fill:var(--ce)}}.c.c1i{fill:var(--c1);animation-name:c1i}@keyframes c1j{17.69%{fill:var(--c1)}17.71%,100%{fill:var(--ce)}}.c.c1j{fill:var(--c1);animation-name:c1j}@keyframes c1k{21.52%{fill:var(--c1)}21.54%,100%{fill:var(--ce)}}.c.c1k{fill:var(--c1);animation-name:c1k}@keyframes c1l{20.34%{fill:var(--c1)}20.36%,100%{fill:var(--ce)}}.c.c1l{fill:var(--c1);animation-name:c1l}@keyframes c1m{18.28%{fill:var(--c1)}18.3%,100%{fill:var(--ce)}}.c.c1m{fill:var(--c1);animation-name:c1m}@keyframes c1n{78.75%{fill:var(--c2)}78.77%,100%{fill:var(--ce)}}.c.c1n{fill:var(--c2);animation-name:c1n}@keyframes c1o{19.75%{fill:var(--c1)}19.77%,100%{fill:var(--ce)}}.c.c1o{fill:var(--c1);animation-name:c1o}@keyframes c1p{18.87%{fill:var(--c1)}18.89%,100%{fill:var(--ce)}}.c.c1p{fill:var(--c1);animation-name:c1p}@keyframes c1q{18.57%{fill:var(--c1)}18.59%,100%{fill:var(--ce)}}.c.c1q{fill:var(--c1);animation-name:c1q}@keyframes c1r{19.46%{fill:var(--c1)}19.48%,100%{fill:var(--ce)}}.c.c1r{fill:var(--c1);animation-name:c1r}@keyframes c1s{19.16%{fill:var(--c1)}19.18%,100%{fill:var(--ce)}}.c.c1s{fill:var(--c1);animation-name:c1s}@keyframes c1t{79.34%{fill:var(--c2)}79.36%,100%{fill:var(--ce)}}.c.c1t{fill:var(--c2);animation-name:c1t}@keyframes c1u{23.88%{fill:var(--c1)}23.9%,100%{fill:var(--ce)}}.c.c1u{fill:var(--c1);animation-name:c1u}@keyframes c1v{23.59%{fill:var(--c1)}23.61%,100%{fill:var(--ce)}}.c.c1v{fill:var(--c1);animation-name:c1v}@keyframes c1w{23.29%{fill:var(--c1)}23.31%,100%{fill:var(--ce)}}.c.c1w{fill:var(--c1);animation-name:c1w}@keyframes c1x{25.36%{fill:var(--c1)}25.38%,100%{fill:var(--ce)}}.c.c1x{fill:var(--c1);animation-name:c1x}@keyframes c1y{24.18%{fill:var(--c1)}24.2%,100%{fill:var(--ce)}}.c.c1y{fill:var(--c1);animation-name:c1y}@keyframes c1z{25.06%{fill:var(--c1)}25.08%,100%{fill:var(--ce)}}.c.c1z{fill:var(--c1);animation-name:c1z}@keyframes c20{24.77%{fill:var(--c1)}24.79%,100%{fill:var(--ce)}}.c.c20{fill:var(--c1);animation-name:c20}@keyframes c21{27.13%{fill:var(--c1)}27.15%,100%{fill:var(--ce)}}.c.c21{fill:var(--c1);animation-name:c21}@keyframes c22{29.78%{fill:var(--c1)}29.8%,100%{fill:var(--ce)}}.c.c22{fill:var(--c1);animation-name:c22}.u{transform-origin:0 0;transform:scale(0,1);animation:none linear 33900ms infinite}@keyframes u0{0.28%{transform:scale(0.000,1)}0.3%,1.17%{transform:scale(0.019,1)}1.19%,1.46%{transform:scale(0.038,1)}1.48%,1.76%{transform:scale(0.058,1)}1.78%,2.35%{transform:scale(0.077,1)}2.37%,3.53%{transform:scale(0.096,1)}3.55%,4.41%{transform:scale(0.115,1)}4.43%,6.48%{transform:scale(0.135,1)}6.5%,7.95%{transform:scale(0.154,1)}7.97%,8.54%{transform:scale(0.173,1)}8.56%,8.84%{transform:scale(0.192,1)}8.86%,9.13%{transform:scale(0.212,1)}9.15%,9.43%{transform:scale(0.231,1)}9.45%,10.31%{transform:scale(0.250,1)}10.33%,10.61%{transform:scale(0.269,1)}10.63%,11.2%{transform:scale(0.288,1)}11.22%,12.97%{transform:scale(0.308,1)}12.99%,14.15%{transform:scale(0.327,1)}14.17%,14.44%{transform:scale(0.346,1)}14.46%,14.74%{transform:scale(0.365,1)}14.76%,15.33%{transform:scale(0.385,1)}15.35%,15.62%{transform:scale(0.404,1)}15.64%,16.21%{transform:scale(0.423,1)}16.23%,16.51%{transform:scale(0.442,1)}16.53%,17.69%{transform:scale(0.462,1)}17.71%,17.98%{transform:scale(0.481,1)}18%,18.28%{transform:scale(0.500,1)}18.3%,18.57%{transform:scale(0.519,1)}18.59%,18.87%{transform:scale(0.538,1)}18.89%,19.16%{transform:scale(0.558,1)}19.18%,19.46%{transform:scale(0.577,1)}19.48%,19.75%{transform:scale(0.596,1)}19.77%,20.34%{transform:scale(0.615,1)}20.36%,20.64%{transform:scale(0.635,1)}20.66%,21.52%{transform:scale(0.654,1)}21.54%,23.29%{transform:scale(0.673,1)}23.31%,23.59%{transform:scale(0.692,1)}23.61%,23.88%{transform:scale(0.712,1)}23.9%,24.18%{transform:scale(0.731,1)}24.2%,24.77%{transform:scale(0.750,1)}24.79%,25.06%{transform:scale(0.769,1)}25.08%,25.36%{transform:scale(0.788,1)}25.38%,27.13%{transform:scale(0.808,1)}27.15%,29.78%{transform:scale(0.827,1)}29.8%,35.09%{transform:scale(0.846,1)}35.11%,38.34%{transform:scale(0.865,1)}38.36%,38.63%{transform:scale(0.885,1)}38.65%,38.93%{transform:scale(0.904,1)}38.95%,40.99%{transform:scale(0.923,1)}41.01%,44.24%{transform:scale(0.942,1)}44.26%,47.19%{transform:scale(0.962,1)}47.21%,52.2%{transform:scale(0.981,1)}52.22%,100%{transform:scale(1.000,1)}}.u.u0{fill:var(--c1);animation-name:u0;transform-origin:0.0px 0}@keyframes u1{52.5%{transform:scale(0.000,1)}52.52%,52.79%{transform:scale(0.059,1)}52.81%,53.09%{transform:scale(0.118,1)}53.11%,53.38%{transform:scale(0.176,1)}53.4%,55.15%{transform:scale(0.235,1)}55.17%,55.74%{transform:scale(0.294,1)}55.76%,57.22%{transform:scale(0.353,1)}57.24%,58.4%{transform:scale(0.412,1)}58.42%,59.87%{transform:scale(0.471,1)}59.89%,62.82%{transform:scale(0.529,1)}62.84%,63.41%{transform:scale(0.588,1)}63.43%,66.36%{transform:scale(0.647,1)}66.38%,66.66%{transform:scale(0.706,1)}66.68%,67.84%{transform:scale(0.765,1)}67.86%,77.28%{transform:scale(0.824,1)}77.3%,78.75%{transform:scale(0.882,1)}78.77%,79.34%{transform:scale(0.941,1)}79.36%,100%{transform:scale(1.000,1)}}.u.u1{fill:var(--c2);animation-name:u1;transform-origin:587.9px 0}@keyframes u2{84.36%{transform:scale(0.000,1)}84.38%,85.54%{transform:scale(0.250,1)}85.56%,86.72%{transform:scale(0.500,1)}86.74%,87.9%{transform:scale(0.750,1)}87.92%,100%{transform:scale(1.000,1)}}.u.u2{fill:var(--c3);animation-name:u2;transform-origin:780.2px 0}@keyframes u3{89.96%{transform:scale(0.000,1)}89.98%,91.73%{transform:scale(0.500,1)}91.75%,100%{transform:scale(1.000,1)}}.u.u3{fill:var(--c4);animation-name:u3;transform-origin:825.4px 0}.s{shape-rendering:geometricPrecision;fill:var(--cs);animation:none linear 33900ms infinite}@keyframes s0{0%,99.71%{transform:translate(0px,-16px)}1.47%{transform:translate(0px,64px)}2.06%{transform:translate(32px,64px)}2.36%{transform:translate(32px,48px)}4.13%{transform:translate(128px,48px)}4.42%{transform:translate(128px,64px)}6.49%,53.69%{transform:translate(240px,64px)}7.67%{transform:translate(240px,0px)}8.55%{transform:translate(288px,0px)}9.14%{transform:translate(288px,32px)}10.32%{transform:translate(352px,32px)}10.62%,37.76%{transform:translate(352px,16px)}10.91%{transform:translate(336px,16px)}11.5%{transform:translate(336px,-16px)}12.68%{transform:translate(400px,-16px)}12.98%{transform:translate(400px,0px)}13.27%{transform:translate(416px,0px)}14.45%{transform:translate(416px,64px)}15.04%{transform:translate(448px,64px)}15.63%{transform:translate(448px,32px)}16.22%{transform:translate(480px,32px)}16.52%{transform:translate(480px,48px)}17.7%{transform:translate(544px,48px)}17.99%{transform:translate(544px,32px)}18.58%{transform:translate(576px,32px)}18.88%{transform:translate(576px,16px)}19.17%{transform:translate(592px,16px)}19.47%{transform:translate(592px,0px)}20.06%{transform:translate(560px,0px)}20.35%{transform:translate(560px,16px)}20.65%{transform:translate(544px,16px)}21.53%{transform:translate(544px,64px)}23.3%{transform:translate(640px,64px)}23.89%{transform:translate(640px,32px)}24.48%{transform:translate(672px,32px)}25.07%{transform:translate(672px,0px)}25.37%{transform:translate(656px,0px)}25.66%{transform:translate(656px,16px)}26.25%{transform:translate(688px,16px)}27.14%{transform:translate(688px,64px)}28.61%{transform:translate(768px,64px)}29.79%{transform:translate(768px,0px)}37.17%,89.09%{transform:translate(368px,0px)}37.46%{transform:translate(368px,16px)}38.64%{transform:translate(352px,64px)}38.94%{transform:translate(368px,64px)}39.23%,56.93%{transform:translate(368px,80px)}40.41%{transform:translate(304px,80px)}40.71%{transform:translate(304px,64px)}41%{transform:translate(288px,64px)}42.48%{transform:translate(288px,-16px)}43.95%{transform:translate(208px,-16px)}44.25%,63.13%{transform:translate(208px,0px)}47.2%{transform:translate(48px,0px)}47.49%{transform:translate(48px,-16px)}47.79%,98.53%{transform:translate(64px,-16px)}48.67%{transform:translate(64px,32px)}52.51%{transform:translate(272px,32px)}52.8%{transform:translate(272px,48px)}53.1%{transform:translate(256px,48px)}53.39%{transform:translate(256px,64px)}53.98%{transform:translate(240px,48px)}55.46%,90.86%{transform:translate(320px,48px)}56.05%{transform:translate(320px,80px)}57.23%{transform:translate(368px,96px)}57.52%{transform:translate(384px,96px)}59.29%{transform:translate(384px,0px)}59.88%{transform:translate(352px,0px)}60.18%{transform:translate(352px,-16px)}62.54%{transform:translate(224px,-16px)}62.83%{transform:translate(224px,0px)}63.42%{transform:translate(208px,16px)}66.37%{transform:translate(48px,16px)}66.67%{transform:translate(48px,32px)}66.96%{transform:translate(32px,32px)}67.55%{transform:translate(32px,0px)}67.85%{transform:translate(16px,0px)}68.14%{transform:translate(16px,16px)}72.27%{transform:translate(240px,16px)}72.57%{transform:translate(240px,32px)}78.47%{transform:translate(560px,32px)}78.76%{transform:translate(560px,48px)}79.35%{transform:translate(592px,48px)}79.65%{transform:translate(592px,64px)}85.55%{transform:translate(272px,64px)}86.43%{transform:translate(272px,16px)}86.73%{transform:translate(256px,16px)}87.02%{transform:translate(256px,0px)}89.97%{transform:translate(368px,48px)}91.74%{transform:translate(320px,96px)}94.69%{transform:translate(160px,96px)}94.99%{transform:translate(160px,80px)}95.28%{transform:translate(144px,80px)}96.17%{transform:translate(144px,32px)}97.05%{transform:translate(96px,32px)}97.35%{transform:translate(96px,16px)}97.64%{transform:translate(80px,16px)}97.94%{transform:translate(80px,0px)}98.23%{transform:translate(64px,0px)}}.s.s0{transform:translate(0px,-16px);animation-name:s0}@keyframes s1{0%,99.71%{transform:translate(16px,-16px)}0.29%{transform:translate(0px,-16px)}1.77%{transform:translate(0px,64px)}2.36%{transform:translate(32px,64px)}2.65%{transform:translate(32px,48px)}4.42%{transform:translate(128px,48px)}4.72%{transform:translate(128px,64px)}6.78%,53.98%{transform:translate(240px,64px)}7.96%{transform:translate(240px,0px)}8.85%{transform:translate(288px,0px)}9.44%{transform:translate(288px,32px)}10.62%{transform:translate(352px,32px)}10.91%,38.05%{transform:translate(352px,16px)}11.21%{transform:translate(336px,16px)}11.8%{transform:translate(336px,-16px)}12.98%{transform:translate(400px,-16px)}13.27%{transform:translate(400px,0px)}13.57%{transform:translate(416px,0px)}14.75%{transform:translate(416px,64px)}15.34%{transform:translate(448px,64px)}15.93%{transform:translate(448px,32px)}16.52%{transform:translate(480px,32px)}16.81%{transform:translate(480px,48px)}17.99%{transform:translate(544px,48px)}18.29%{transform:translate(544px,32px)}18.88%{transform:translate(576px,32px)}19.17%{transform:translate(576px,16px)}19.47%{transform:translate(592px,16px)}19.76%{transform:translate(592px,0px)}20.35%{transform:translate(560px,0px)}20.65%{transform:translate(560px,16px)}20.94%{transform:translate(544px,16px)}21.83%{transform:translate(544px,64px)}23.6%{transform:translate(640px,64px)}24.19%{transform:translate(640px,32px)}24.78%{transform:translate(672px,32px)}25.37%{transform:translate(672px,0px)}25.66%{transform:translate(656px,0px)}25.96%{transform:translate(656px,16px)}26.55%{transform:translate(688px,16px)}27.43%{transform:translate(688px,64px)}28.91%{transform:translate(768px,64px)}30.09%{transform:translate(768px,0px)}37.46%,89.38%{transform:translate(368px,0px)}37.76%{transform:translate(368px,16px)}38.94%{transform:translate(352px,64px)}39.23%{transform:translate(368px,64px)}39.53%,57.23%{transform:translate(368px,80px)}40.71%{transform:translate(304px,80px)}41%{transform:translate(304px,64px)}41.3%{transform:translate(288px,64px)}42.77%{transform:translate(288px,-16px)}44.25%{transform:translate(208px,-16px)}44.54%,63.42%{transform:translate(208px,0px)}47.49%{transform:translate(48px,0px)}47.79%{transform:translate(48px,-16px)}48.08%,98.82%{transform:translate(64px,-16px)}48.97%{transform:translate(64px,32px)}52.8%{transform:translate(272px,32px)}53.1%{transform:translate(272px,48px)}53.39%{transform:translate(256px,48px)}53.69%{transform:translate(256px,64px)}54.28%{transform:translate(240px,48px)}55.75%,91.15%{transform:translate(320px,48px)}56.34%{transform:translate(320px,80px)}57.52%{transform:translate(368px,96px)}57.82%{transform:translate(384px,96px)}59.59%{transform:translate(384px,0px)}60.18%{transform:translate(352px,0px)}60.47%{transform:translate(352px,-16px)}62.83%{transform:translate(224px,-16px)}63.13%{transform:translate(224px,0px)}63.72%{transform:translate(208px,16px)}66.67%{transform:translate(48px,16px)}66.96%{transform:translate(48px,32px)}67.26%{transform:translate(32px,32px)}67.85%{transform:translate(32px,0px)}68.14%{transform:translate(16px,0px)}68.44%{transform:translate(16px,16px)}72.57%{transform:translate(240px,16px)}72.86%{transform:translate(240px,32px)}78.76%{transform:translate(560px,32px)}79.06%{transform:translate(560px,48px)}79.65%{transform:translate(592px,48px)}79.94%{transform:translate(592px,64px)}85.84%{transform:translate(272px,64px)}86.73%{transform:translate(272px,16px)}87.02%{transform:translate(256px,16px)}87.32%{transform:translate(256px,0px)}90.27%{transform:translate(368px,48px)}92.04%{transform:translate(320px,96px)}94.99%{transform:translate(160px,96px)}95.28%{transform:translate(160px,80px)}95.58%{transform:translate(144px,80px)}96.46%{transform:translate(144px,32px)}97.35%{transform:translate(96px,32px)}97.64%{transform:translate(96px,16px)}97.94%{transform:translate(80px,16px)}98.23%{transform:translate(80px,0px)}98.53%{transform:translate(64px,0px)}}.s.s1{transform:translate(16px,-16px);animation-name:s1}@keyframes s2{0%,99.71%{transform:translate(32px,-16px)}0.59%{transform:translate(0px,-16px)}2.06%{transform:translate(0px,64px)}2.65%{transform:translate(32px,64px)}2.95%{transform:translate(32px,48px)}4.72%{transform:translate(128px,48px)}5.01%{transform:translate(128px,64px)}7.08%,54.28%{transform:translate(240px,64px)}8.26%{transform:translate(240px,0px)}9.14%{transform:translate(288px,0px)}9.73%{transform:translate(288px,32px)}10.91%{transform:translate(352px,32px)}11.21%,38.35%{transform:translate(352px,16px)}11.5%{transform:translate(336px,16px)}12.09%{transform:translate(336px,-16px)}13.27%{transform:translate(400px,-16px)}13.57%{transform:translate(400px,0px)}13.86%{transform:translate(416px,0px)}15.04%{transform:translate(416px,64px)}15.63%{transform:translate(448px,64px)}16.22%{transform:translate(448px,32px)}16.81%{transform:translate(480px,32px)}17.11%{transform:translate(480px,48px)}18.29%{transform:translate(544px,48px)}18.58%{transform:translate(544px,32px)}19.17%{transform:translate(576px,32px)}19.47%{transform:translate(576px,16px)}19.76%{transform:translate(592px,16px)}20.06%{transform:translate(592px,0px)}20.65%{transform:translate(560px,0px)}20.94%{transform:translate(560px,16px)}21.24%{transform:translate(544px,16px)}22.12%{transform:translate(544px,64px)}23.89%{transform:translate(640px,64px)}24.48%{transform:translate(640px,32px)}25.07%{transform:translate(672px,32px)}25.66%{transform:translate(672px,0px)}25.96%{transform:translate(656px,0px)}26.25%{transform:translate(656px,16px)}26.84%{transform:translate(688px,16px)}27.73%{transform:translate(688px,64px)}29.2%{transform:translate(768px,64px)}30.38%{transform:translate(768px,0px)}37.76%,89.68%{transform:translate(368px,0px)}38.05%{transform:translate(368px,16px)}39.23%{transform:translate(352px,64px)}39.53%{transform:translate(368px,64px)}39.82%,57.52%{transform:translate(368px,80px)}41%{transform:translate(304px,80px)}41.3%{transform:translate(304px,64px)}41.59%{transform:translate(288px,64px)}43.07%{transform:translate(288px,-16px)}44.54%{transform:translate(208px,-16px)}44.84%,63.72%{transform:translate(208px,0px)}47.79%{transform:translate(48px,0px)}48.08%{transform:translate(48px,-16px)}48.38%,99.12%{transform:translate(64px,-16px)}49.26%{transform:translate(64px,32px)}53.1%{transform:translate(272px,32px)}53.39%{transform:translate(272px,48px)}53.69%{transform:translate(256px,48px)}53.98%{transform:translate(256px,64px)}54.57%{transform:translate(240px,48px)}56.05%,91.45%{transform:translate(320px,48px)}56.64%{transform:translate(320px,80px)}57.82%{transform:translate(368px,96px)}58.11%{transform:translate(384px,96px)}59.88%{transform:translate(384px,0px)}60.47%{transform:translate(352px,0px)}60.77%{transform:translate(352px,-16px)}63.13%{transform:translate(224px,-16px)}63.42%{transform:translate(224px,0px)}64.01%{transform:translate(208px,16px)}66.96%{transform:translate(48px,16px)}67.26%{transform:translate(48px,32px)}67.55%{transform:translate(32px,32px)}68.14%{transform:translate(32px,0px)}68.44%{transform:translate(16px,0px)}68.73%{transform:translate(16px,16px)}72.86%{transform:translate(240px,16px)}73.16%{transform:translate(240px,32px)}79.06%{transform:translate(560px,32px)}79.35%{transform:translate(560px,48px)}79.94%{transform:translate(592px,48px)}80.24%{transform:translate(592px,64px)}86.14%{transform:translate(272px,64px)}87.02%{transform:translate(272px,16px)}87.32%{transform:translate(256px,16px)}87.61%{transform:translate(256px,0px)}90.56%{transform:translate(368px,48px)}92.33%{transform:translate(320px,96px)}95.28%{transform:translate(160px,96px)}95.58%{transform:translate(160px,80px)}95.87%{transform:translate(144px,80px)}96.76%{transform:translate(144px,32px)}97.64%{transform:translate(96px,32px)}97.94%{transform:translate(96px,16px)}98.23%{transform:translate(80px,16px)}98.53%{transform:translate(80px,0px)}98.82%{transform:translate(64px,0px)}}.s.s2{transform:translate(32px,-16px);animation-name:s2}@keyframes s3{0%,48.38%,99.71%{transform:translate(48px,-16px)}0.88%{transform:translate(0px,-16px)}2.36%{transform:translate(0px,64px)}2.95%{transform:translate(32px,64px)}3.24%{transform:translate(32px,48px)}5.01%{transform:translate(128px,48px)}5.31%{transform:translate(128px,64px)}7.37%,54.57%{transform:translate(240px,64px)}8.55%{transform:translate(240px,0px)}9.44%{transform:translate(288px,0px)}10.03%{transform:translate(288px,32px)}11.21%{transform:translate(352px,32px)}11.5%,38.64%{transform:translate(352px,16px)}11.8%{transform:translate(336px,16px)}12.39%{transform:translate(336px,-16px)}13.57%{transform:translate(400px,-16px)}13.86%{transform:translate(400px,0px)}14.16%{transform:translate(416px,0px)}15.34%{transform:translate(416px,64px)}15.93%{transform:translate(448px,64px)}16.52%{transform:translate(448px,32px)}17.11%{transform:translate(480px,32px)}17.4%{transform:translate(480px,48px)}18.58%{transform:translate(544px,48px)}18.88%{transform:translate(544px,32px)}19.47%{transform:translate(576px,32px)}19.76%{transform:translate(576px,16px)}20.06%{transform:translate(592px,16px)}20.35%{transform:translate(592px,0px)}20.94%{transform:translate(560px,0px)}21.24%{transform:translate(560px,16px)}21.53%{transform:translate(544px,16px)}22.42%{transform:translate(544px,64px)}24.19%{transform:translate(640px,64px)}24.78%{transform:translate(640px,32px)}25.37%{transform:translate(672px,32px)}25.96%{transform:translate(672px,0px)}26.25%{transform:translate(656px,0px)}26.55%{transform:translate(656px,16px)}27.14%{transform:translate(688px,16px)}28.02%{transform:translate(688px,64px)}29.5%{transform:translate(768px,64px)}30.68%{transform:translate(768px,0px)}38.05%,89.97%{transform:translate(368px,0px)}38.35%{transform:translate(368px,16px)}39.53%{transform:translate(352px,64px)}39.82%{transform:translate(368px,64px)}40.12%,57.82%{transform:translate(368px,80px)}41.3%{transform:translate(304px,80px)}41.59%{transform:translate(304px,64px)}41.89%{transform:translate(288px,64px)}43.36%{transform:translate(288px,-16px)}44.84%{transform:translate(208px,-16px)}45.13%,64.01%{transform:translate(208px,0px)}48.08%{transform:translate(48px,0px)}48.67%,99.41%{transform:translate(64px,-16px)}49.56%{transform:translate(64px,32px)}53.39%{transform:translate(272px,32px)}53.69%{transform:translate(272px,48px)}53.98%{transform:translate(256px,48px)}54.28%{transform:translate(256px,64px)}54.87%{transform:translate(240px,48px)}56.34%,91.74%{transform:translate(320px,48px)}56.93%{transform:translate(320px,80px)}58.11%{transform:translate(368px,96px)}58.41%{transform:translate(384px,96px)}60.18%{transform:translate(384px,0px)}60.77%{transform:translate(352px,0px)}61.06%{transform:translate(352px,-16px)}63.42%{transform:translate(224px,-16px)}63.72%{transform:translate(224px,0px)}64.31%{transform:translate(208px,16px)}67.26%{transform:translate(48px,16px)}67.55%{transform:translate(48px,32px)}67.85%{transform:translate(32px,32px)}68.44%{transform:translate(32px,0px)}68.73%{transform:translate(16px,0px)}69.03%{transform:translate(16px,16px)}73.16%{transform:translate(240px,16px)}73.45%{transform:translate(240px,32px)}79.35%{transform:translate(560px,32px)}79.65%{transform:translate(560px,48px)}80.24%{transform:translate(592px,48px)}80.53%{transform:translate(592px,64px)}86.43%{transform:translate(272px,64px)}87.32%{transform:translate(272px,16px)}87.61%{transform:translate(256px,16px)}87.91%{transform:translate(256px,0px)}90.86%{transform:translate(368px,48px)}92.63%{transform:translate(320px,96px)}95.58%{transform:translate(160px,96px)}95.87%{transform:translate(160px,80px)}96.17%{transform:translate(144px,80px)}97.05%{transform:translate(144px,32px)}97.94%{transform:translate(96px,32px)}98.23%{transform:translate(96px,16px)}98.53%{transform:translate(80px,16px)}98.82%{transform:translate(80px,0px)}99.12%{transform:translate(64px,0px)}}.s.s3{transform:translate(48px,-16px);animation-name:s3}</style><rect class="c c0" x="2" y="2" rx="2" ry="2"/><rect class="c" x="2" y="18" rx="2" ry="2"/><rect class="c" x="2" y="34" rx="2" ry="2"/><rect class="c c1" x="2" y="50" rx="2" ry="2"/><rect class="c c2" x="2" y="66" rx="2" ry="2"/><rect class="c" x="2" y="82" rx="2" ry="2"/><rect class="c" x="2" y="98" rx="2" ry="2"/><rect class="c c3" x="18" y="2" rx="2" ry="2"/><rect class="c" x="18" y="18" rx="2" ry="2"/><rect class="c" x="18" y="34" rx="2" ry="2"/><rect class="c" x="18" y="50" rx="2" ry="2"/><rect class="c c4" x="18" y="66" rx="2" ry="2"/><rect class="c" x="18" y="82" rx="2" ry="2"/><rect class="c" x="18" y="98" rx="2" ry="2"/><rect class="c" x="34" y="2" rx="2" ry="2"/><rect class="c" x="34" y="18" rx="2" ry="2"/><rect class="c" x="34" y="34" rx="2" ry="2"/><rect class="c c5" x="34" y="50" rx="2" ry="2"/><rect class="c" x="34" y="66" rx="2" ry="2"/><rect class="c" x="34" y="82" rx="2" ry="2"/><rect class="c" x="34" y="98" rx="2" ry="2"/><rect class="c c6" x="50" y="2" rx="2" ry="2"/><rect class="c c7" x="50" y="18" rx="2" ry="2"/><rect class="c c8" x="50" y="34" rx="2" ry="2"/><rect class="c" x="50" y="50" rx="2" ry="2"/><rect class="c" x="50" y="66" rx="2" ry="2"/><rect class="c" x="50" y="82" rx="2" ry="2"/><rect class="c" x="50" y="98" rx="2" ry="2"/><rect class="c" x="66" y="2" rx="2" ry="2"/><rect class="c" x="66" y="18" rx="2" ry="2"/><rect class="c" x="66" y="34" rx="2" ry="2"/><rect class="c" x="66" y="50" rx="2" ry="2"/><rect class="c" x="66" y="66" rx="2" ry="2"/><rect class="c" x="66" y="82" rx="2" ry="2"/><rect class="c" x="66" y="98" rx="2" ry="2"/><rect class="c" x="82" y="2" rx="2" ry="2"/><rect class="c" x="82" y="18" rx="2" ry="2"/><rect class="c" x="82" y="34" rx="2" ry="2"/><rect class="c" x="82" y="50" rx="2" ry="2"/><rect class="c" x="82" y="66" rx="2" ry="2"/><rect class="c" x="82" y="82" rx="2" ry="2"/><rect class="c" x="82" y="98" rx="2" ry="2"/><rect class="c" x="98" y="2" rx="2" ry="2"/><rect class="c" x="98" y="18" rx="2" ry="2"/><rect class="c" x="98" y="34" rx="2" ry="2"/><rect class="c c9" x="98" y="50" rx="2" ry="2"/><rect class="c" x="98" y="66" rx="2" ry="2"/><rect class="c" x="98" y="82" rx="2" ry="2"/><rect class="c" x="98" y="98" rx="2" ry="2"/><rect class="c" x="114" y="2" rx="2" ry="2"/><rect class="c" x="114" y="18" rx="2" ry="2"/><rect class="c" x="114" y="34" rx="2" ry="2"/><rect class="c" x="114" y="50" rx="2" ry="2"/><rect class="c" x="114" y="66" rx="2" ry="2"/><rect class="c" x="114" y="82" rx="2" ry="2"/><rect class="c" x="114" y="98" rx="2" ry="2"/><rect class="c" x="130" y="2" rx="2" ry="2"/><rect class="c" x="130" y="18" rx="2" ry="2"/><rect class="c" x="130" y="34" rx="2" ry="2"/><rect class="c" x="130" y="50" rx="2" ry="2"/><rect class="c ca" x="130" y="66" rx="2" ry="2"/><rect class="c" x="130" y="82" rx="2" ry="2"/><rect class="c" x="130" y="98" rx="2" ry="2"/><rect class="c" x="146" y="2" rx="2" ry="2"/><rect class="c" x="146" y="18" rx="2" ry="2"/><rect class="c" x="146" y="34" rx="2" ry="2"/><rect class="c" x="146" y="50" rx="2" ry="2"/><rect class="c" x="146" y="66" rx="2" ry="2"/><rect class="c" x="146" y="82" rx="2" ry="2"/><rect class="c" x="146" y="98" rx="2" ry="2"/><rect class="c" x="162" y="2" rx="2" ry="2"/><rect class="c" x="162" y="18" rx="2" ry="2"/><rect class="c" x="162" y="34" rx="2" ry="2"/><rect class="c" x="162" y="50" rx="2" ry="2"/><rect class="c" x="162" y="66" rx="2" ry="2"/><rect class="c" x="162" y="82" rx="2" ry="2"/><rect class="c" x="162" y="98" rx="2" ry="2"/><rect class="c" x="178" y="2" rx="2" ry="2"/><rect class="c" x="178" y="18" rx="2" ry="2"/><rect class="c" x="178" y="34" rx="2" ry="2"/><rect class="c" x="178" y="50" rx="2" ry="2"/><rect class="c" x="178" y="66" rx="2" ry="2"/><rect class="c" x="178" y="82" rx="2" ry="2"/><rect class="c" x="178" y="98" rx="2" ry="2"/><rect class="c" x="194" y="2" rx="2" ry="2"/><rect class="c" x="194" y="18" rx="2" ry="2"/><rect class="c" x="194" y="34" rx="2" ry="2"/><rect class="c" x="194" y="50" rx="2" ry="2"/><rect class="c" x="194" y="66" rx="2" ry="2"/><rect class="c" x="194" y="82" rx="2" ry="2"/><rect class="c" x="194" y="98" rx="2" ry="2"/><rect class="c cb" x="210" y="2" rx="2" ry="2"/><rect class="c cc" x="210" y="18" rx="2" ry="2"/><rect class="c" x="210" y="34" rx="2" ry="2"/><rect class="c" x="210" y="50" rx="2" ry="2"/><rect class="c" x="210" y="66" rx="2" ry="2"/><rect class="c" x="210" y="82" rx="2" ry="2"/><rect class="c" x="210" y="98" rx="2" ry="2"/><rect class="c cd" x="226" y="2" rx="2" ry="2"/><rect class="c" x="226" y="18" rx="2" ry="2"/><rect class="c" x="226" y="34" rx="2" ry="2"/><rect class="c" x="226" y="50" rx="2" ry="2"/><rect class="c" x="226" y="66" rx="2" ry="2"/><rect class="c" x="226" y="82" rx="2" ry="2"/><rect class="c" x="226" y="98" rx="2" ry="2"/><rect class="c" x="242" y="2" rx="2" ry="2"/><rect class="c" x="242" y="18" rx="2" ry="2"/><rect class="c" x="242" y="34" rx="2" ry="2"/><rect class="c" x="242" y="50" rx="2" ry="2"/><rect class="c ce" x="242" y="66" rx="2" ry="2"/><rect class="c" x="242" y="82" rx="2" ry="2"/><rect class="c" x="242" y="98" rx="2" ry="2"/><rect class="c cf" x="258" y="2" rx="2" ry="2"/><rect class="c cg" x="258" y="18" rx="2" ry="2"/><rect class="c ch" x="258" y="34" rx="2" ry="2"/><rect class="c ci" x="258" y="50" rx="2" ry="2"/><rect class="c cj" x="258" y="66" rx="2" ry="2"/><rect class="c" x="258" y="82" rx="2" ry="2"/><rect class="c" x="258" y="98" rx="2" ry="2"/><rect class="c" x="274" y="2" rx="2" ry="2"/><rect class="c" x="274" y="18" rx="2" ry="2"/><rect class="c ck" x="274" y="34" rx="2" ry="2"/><rect class="c cl" x="274" y="50" rx="2" ry="2"/><rect class="c cm" x="274" y="66" rx="2" ry="2"/><rect class="c" x="274" y="82" rx="2" ry="2"/><rect class="c" x="274" y="98" rx="2" ry="2"/><rect class="c cn" x="290" y="2" rx="2" ry="2"/><rect class="c co" x="290" y="18" rx="2" ry="2"/><rect class="c cp" x="290" y="34" rx="2" ry="2"/><rect class="c" x="290" y="50" rx="2" ry="2"/><rect class="c cq" x="290" y="66" rx="2" ry="2"/><rect class="c" x="290" y="82" rx="2" ry="2"/><rect class="c" x="290" y="98" rx="2" ry="2"/><rect class="c cr" x="306" y="2" rx="2" ry="2"/><rect class="c" x="306" y="18" rx="2" ry="2"/><rect class="c cs" x="306" y="34" rx="2" ry="2"/><rect class="c ct" x="306" y="50" rx="2" ry="2"/><rect class="c" x="306" y="66" rx="2" ry="2"/><rect class="c" x="306" y="82" rx="2" ry="2"/><rect class="c" x="306" y="98" rx="2" ry="2"/><rect class="c" x="322" y="2" rx="2" ry="2"/><rect class="c" x="322" y="18" rx="2" ry="2"/><rect class="c" x="322" y="34" rx="2" ry="2"/><rect class="c" x="322" y="50" rx="2" ry="2"/><rect class="c cu" x="322" y="66" rx="2" ry="2"/><rect class="c" x="322" y="82" rx="2" ry="2"/><rect class="c cv" x="322" y="98" rx="2" ry="2"/><rect class="c cw" x="338" y="2" rx="2" ry="2"/><rect class="c" x="338" y="18" rx="2" ry="2"/><rect class="c" x="338" y="34" rx="2" ry="2"/><rect class="c" x="338" y="50" rx="2" ry="2"/><rect class="c cx" x="338" y="66" rx="2" ry="2"/><rect class="c" x="338" y="82" rx="2" ry="2"/><rect class="c" x="338" y="98" rx="2" ry="2"/><rect class="c cy" x="354" y="2" rx="2" ry="2"/><rect class="c cz" x="354" y="18" rx="2" ry="2"/><rect class="c c10" x="354" y="34" rx="2" ry="2"/><rect class="c c11" x="354" y="50" rx="2" ry="2"/><rect class="c c12" x="354" y="66" rx="2" ry="2"/><rect class="c" x="354" y="82" rx="2" ry="2"/><rect class="c" x="354" y="98" rx="2" ry="2"/><rect class="c" x="370" y="2" rx="2" ry="2"/><rect class="c" x="370" y="18" rx="2" ry="2"/><rect class="c" x="370" y="34" rx="2" ry="2"/><rect class="c c13" x="370" y="50" rx="2" ry="2"/><rect class="c c14" x="370" y="66" rx="2" ry="2"/><rect class="c" x="370" y="82" rx="2" ry="2"/><rect class="c c15" x="370" y="98" rx="2" ry="2"/><rect class="c" x="386" y="2" rx="2" ry="2"/><rect class="c" x="386" y="18" rx="2" ry="2"/><rect class="c" x="386" y="34" rx="2" ry="2"/><rect class="c c16" x="386" y="50" rx="2" ry="2"/><rect class="c" x="386" y="66" rx="2" ry="2"/><rect class="c" x="386" y="82" rx="2" ry="2"/><rect class="c" x="386" y="98" rx="2" ry="2"/><rect class="c c17" x="402" y="2" rx="2" ry="2"/><rect class="c" x="402" y="18" rx="2" ry="2"/><rect class="c" x="402" y="34" rx="2" ry="2"/><rect class="c" x="402" y="50" rx="2" ry="2"/><rect class="c" x="402" y="66" rx="2" ry="2"/><rect class="c" x="402" y="82" rx="2" ry="2"/><rect class="c" x="402" y="98" rx="2" ry="2"/><rect class="c" x="418" y="2" rx="2" ry="2"/><rect class="c" x="418" y="18" rx="2" ry="2"/><rect class="c" x="418" y="34" rx="2" ry="2"/><rect class="c c18" x="418" y="50" rx="2" ry="2"/><rect class="c c19" x="418" y="66" rx="2" ry="2"/><rect class="c" x="418" y="82" rx="2" ry="2"/><rect class="c" x="418" y="98" rx="2" ry="2"/><rect class="c" x="434" y="2" rx="2" ry="2"/><rect class="c" x="434" y="18" rx="2" ry="2"/><rect class="c" x="434" y="34" rx="2" ry="2"/><rect class="c" x="434" y="50" rx="2" ry="2"/><rect class="c c1a" x="434" y="66" rx="2" ry="2"/><rect class="c" x="434" y="82" rx="2" ry="2"/><rect class="c" x="434" y="98" rx="2" ry="2"/><rect class="c" x="450" y="2" rx="2" ry="2"/><rect class="c" x="450" y="18" rx="2" ry="2"/><rect class="c c1b" x="450" y="34" rx="2" ry="2"/><rect class="c c1c" x="450" y="50" rx="2" ry="2"/><rect class="c" x="450" y="66" rx="2" ry="2"/><rect class="c" x="450" y="82" rx="2" ry="2"/><rect class="c" x="450" y="98" rx="2" ry="2"/><rect class="c" x="466" y="2" rx="2" ry="2"/><rect class="c" x="466" y="18" rx="2" ry="2"/><rect class="c" x="466" y="34" rx="2" ry="2"/><rect class="c" x="466" y="50" rx="2" ry="2"/><rect class="c" x="466" y="66" rx="2" ry="2"/><rect class="c" x="466" y="82" rx="2" ry="2"/><rect class="c" x="466" y="98" rx="2" ry="2"/><rect class="c c1d" x="482" y="2" rx="2" ry="2"/><rect class="c" x="482" y="18" rx="2" ry="2"/><rect class="c c1e" x="482" y="34" rx="2" ry="2"/><rect class="c c1f" x="482" y="50" rx="2" ry="2"/><rect class="c" x="482" y="66" rx="2" ry="2"/><rect class="c" x="482" y="82" rx="2" ry="2"/><rect class="c" x="482" y="98" rx="2" ry="2"/><rect class="c" x="498" y="2" rx="2" ry="2"/><rect class="c" x="498" y="18" rx="2" ry="2"/><rect class="c c1g" x="498" y="34" rx="2" ry="2"/><rect class="c" x="498" y="50" rx="2" ry="2"/><rect class="c" x="498" y="66" rx="2" ry="2"/><rect class="c" x="498" y="82" rx="2" ry="2"/><rect class="c" x="498" y="98" rx="2" ry="2"/><rect class="c" x="514" y="2" rx="2" ry="2"/><rect class="c" x="514" y="18" rx="2" ry="2"/><rect class="c" x="514" y="34" rx="2" ry="2"/><rect class="c" x="514" y="50" rx="2" ry="2"/><rect class="c" x="514" y="66" rx="2" ry="2"/><rect class="c" x="514" y="82" rx="2" ry="2"/><rect class="c" x="514" y="98" rx="2" ry="2"/><rect class="c" x="530" y="2" rx="2" ry="2"/><rect class="c" x="530" y="18" rx="2" ry="2"/><rect class="c" x="530" y="34" rx="2" ry="2"/><rect class="c" x="530" y="50" rx="2" ry="2"/><rect class="c" x="530" y="66" rx="2" ry="2"/><rect class="c" x="530" y="82" rx="2" ry="2"/><rect class="c" x="530" y="98" rx="2" ry="2"/><rect class="c" x="546" y="2" rx="2" ry="2"/><rect class="c c1h" x="546" y="18" rx="2" ry="2"/><rect class="c c1i" x="546" y="34" rx="2" ry="2"/><rect class="c c1j" x="546" y="50" rx="2" ry="2"/><rect class="c c1k" x="546" y="66" rx="2" ry="2"/><rect class="c" x="546" y="82" rx="2" ry="2"/><rect class="c" x="546" y="98" rx="2" ry="2"/><rect class="c" x="562" y="2" rx="2" ry="2"/><rect class="c c1l" x="562" y="18" rx="2" ry="2"/><rect class="c c1m" x="562" y="34" rx="2" ry="2"/><rect class="c c1n" x="562" y="50" rx="2" ry="2"/><rect class="c" x="562" y="66" rx="2" ry="2"/><rect class="c" x="562" y="82" rx="2" ry="2"/><rect class="c" x="562" y="98" rx="2" ry="2"/><rect class="c c1o" x="578" y="2" rx="2" ry="2"/><rect class="c c1p" x="578" y="18" rx="2" ry="2"/><rect class="c c1q" x="578" y="34" rx="2" ry="2"/><rect class="c" x="578" y="50" rx="2" ry="2"/><rect class="c" x="578" y="66" rx="2" ry="2"/><rect class="c" x="578" y="82" rx="2" ry="2"/><rect class="c" x="578" y="98" rx="2" ry="2"/><rect class="c c1r" x="594" y="2" rx="2" ry="2"/><rect class="c c1s" x="594" y="18" rx="2" ry="2"/><rect class="c" x="594" y="34" rx="2" ry="2"/><rect class="c c1t" x="594" y="50" rx="2" ry="2"/><rect class="c" x="594" y="66" rx="2" ry="2"/><rect class="c" x="594" y="82" rx="2" ry="2"/><rect class="c" x="594" y="98" rx="2" ry="2"/><rect class="c" x="610" y="2" rx="2" ry="2"/><rect class="c" x="610" y="18" rx="2" ry="2"/><rect class="c" x="610" y="34" rx="2" ry="2"/><rect class="c" x="610" y="50" rx="2" ry="2"/><rect class="c" x="610" y="66" rx="2" ry="2"/><rect class="c" x="610" y="82" rx="2" ry="2"/><rect class="c" x="610" y="98" rx="2" ry="2"/><rect class="c" x="626" y="2" rx="2" ry="2"/><rect class="c" x="626" y="18" rx="2" ry="2"/><rect class="c" x="626" y="34" rx="2" ry="2"/><rect class="c" x="626" y="50" rx="2" ry="2"/><rect class="c" x="626" y="66" rx="2" ry="2"/><rect class="c" x="626" y="82" rx="2" ry="2"/><rect class="c" x="626" y="98" rx="2" ry="2"/><rect class="c" x="642" y="2" rx="2" ry="2"/><rect class="c" x="642" y="18" rx="2" ry="2"/><rect class="c c1u" x="642" y="34" rx="2" ry="2"/><rect class="c c1v" x="642" y="50" rx="2" ry="2"/><rect class="c c1w" x="642" y="66" rx="2" ry="2"/><rect class="c" x="642" y="82" rx="2" ry="2"/><rect class="c" x="642" y="98" rx="2" ry="2"/><rect class="c c1x" x="658" y="2" rx="2" ry="2"/><rect class="c" x="658" y="18" rx="2" ry="2"/><rect class="c c1y" x="658" y="34" rx="2" ry="2"/><rect class="c" x="658" y="50" rx="2" ry="2"/><rect class="c" x="658" y="66" rx="2" ry="2"/><rect class="c" x="658" y="82" rx="2" ry="2"/><rect class="c" x="658" y="98" rx="2" ry="2"/><rect class="c c1z" x="674" y="2" rx="2" ry="2"/><rect class="c c20" x="674" y="18" rx="2" ry="2"/><rect class="c" x="674" y="34" rx="2" ry="2"/><rect class="c" x="674" y="50" rx="2" ry="2"/><rect class="c" x="674" y="66" rx="2" ry="2"/><rect class="c" x="674" y="82" rx="2" ry="2"/><rect class="c" x="674" y="98" rx="2" ry="2"/><rect class="c" x="690" y="2" rx="2" ry="2"/><rect class="c" x="690" y="18" rx="2" ry="2"/><rect class="c" x="690" y="34" rx="2" ry="2"/><rect class="c" x="690" y="50" rx="2" ry="2"/><rect class="c c21" x="690" y="66" rx="2" ry="2"/><rect class="c" x="690" y="82" rx="2" ry="2"/><rect class="c" x="690" y="98" rx="2" ry="2"/><rect class="c" x="706" y="2" rx="2" ry="2"/><rect class="c" x="706" y="18" rx="2" ry="2"/><rect class="c" x="706" y="34" rx="2" ry="2"/><rect class="c" x="706" y="50" rx="2" ry="2"/><rect class="c" x="706" y="66" rx="2" ry="2"/><rect class="c" x="706" y="82" rx="2" ry="2"/><rect class="c" x="706" y="98" rx="2" ry="2"/><rect class="c" x="722" y="2" rx="2" ry="2"/><rect class="c" x="722" y="18" rx="2" ry="2"/><rect class="c" x="722" y="34" rx="2" ry="2"/><rect class="c" x="722" y="50" rx="2" ry="2"/><rect class="c" x="722" y="66" rx="2" ry="2"/><rect class="c" x="722" y="82" rx="2" ry="2"/><rect class="c" x="722" y="98" rx="2" ry="2"/><rect class="c" x="738" y="2" rx="2" ry="2"/><rect class="c" x="738" y="18" rx="2" ry="2"/><rect class="c" x="738" y="34" rx="2" ry="2"/><rect class="c" x="738" y="50" rx="2" ry="2"/><rect class="c" x="738" y="66" rx="2" ry="2"/><rect class="c" x="738" y="82" rx="2" ry="2"/><rect class="c" x="738" y="98" rx="2" ry="2"/><rect class="c" x="754" y="2" rx="2" ry="2"/><rect class="c" x="754" y="18" rx="2" ry="2"/><rect class="c" x="754" y="34" rx="2" ry="2"/><rect class="c" x="754" y="50" rx="2" ry="2"/><rect class="c" x="754" y="66" rx="2" ry="2"/><rect class="c" x="754" y="82" rx="2" ry="2"/><rect class="c" x="754" y="98" rx="2" ry="2"/><rect class="c c22" x="770" y="2" rx="2" ry="2"/><rect class="c" x="770" y="18" rx="2" ry="2"/><rect class="c" x="770" y="34" rx="2" ry="2"/><rect class="c" x="770" y="50" rx="2" ry="2"/><rect class="c" x="770" y="66" rx="2" ry="2"/><rect class="c" x="770" y="82" rx="2" ry="2"/><rect class="c" x="770" y="98" rx="2" ry="2"/><rect class="c" x="786" y="2" rx="2" ry="2"/><rect class="c" x="786" y="18" rx="2" ry="2"/><rect class="c" x="786" y="34" rx="2" ry="2"/><rect class="c" x="786" y="50" rx="2" ry="2"/><rect class="c" x="786" y="66" rx="2" ry="2"/><rect class="c" x="786" y="82" rx="2" ry="2"/><rect class="c" x="786" y="98" rx="2" ry="2"/><rect class="c" x="802" y="2" rx="2" ry="2"/><rect class="c" x="802" y="18" rx="2" ry="2"/><rect class="c" x="802" y="34" rx="2" ry="2"/><rect class="c" x="802" y="50" rx="2" ry="2"/><rect class="c" x="802" y="66" rx="2" ry="2"/><rect class="c" x="802" y="82" rx="2" ry="2"/><rect class="c" x="802" y="98" rx="2" ry="2"/><rect class="c" x="818" y="2" rx="2" ry="2"/><rect class="c" x="818" y="18" rx="2" ry="2"/><rect class="c" x="818" y="34" rx="2" ry="2"/><rect class="c" x="818" y="50" rx="2" ry="2"/><rect class="c" x="818" y="66" rx="2" ry="2"/><rect class="c" x="818" y="82" rx="2" ry="2"/><rect class="c" x="818" y="98" rx="2" ry="2"/><rect class="c" x="834" y="2" rx="2" ry="2"/><rect class="c" x="834" y="18" rx="2" ry="2"/><rect class="u u0" height="12" width="588.5" x="0.0" y="144"/><rect class="u u1" height="12" width="192.8" x="587.9" y="144"/><rect class="u u2" height="12" width="45.8" x="780.2" y="144"/><rect class="u u3" height="12" width="23.2" x="825.4" y="144"/><rect class="s s0" x="0.8" y="0.8" width="14.4" height="14.4" rx="4.5" ry="4.5"/><rect class="s s1" x="1.8" y="1.8" width="12.3" height="12.3" rx="4.1" ry="4.1"/><rect class="s s2" x="2.6" y="2.6" width="10.8" height="10.8" rx="3.6" ry="3.6"/><rect class="s s3" x="3.0" y="3.0" width="9.9" height="9.9" rx="3.3" ry="3.3"/></svg>
